<svg id="Layer_1" data-name="Layer 1" xmlns="http://www.w3.org/2000/svg" viewBox="0 0 695.94 131.21"><defs><style>.cls-1{fill:#4d5ee1;}.cls-2{fill:#434ec7;}.cls-3{fill:#4246af;}.cls-4{fill:#41398d;}.cls-5{fill:#423d97;}.cls-6{fill:#454cbc;}.cls-7{fill:#4343a2;}.cls-8{fill:#5c6bd7;}</style></defs><path class="cls-1" d="M363.34,612.22H489.76c.1,2,.27,4,.27,5.88,0,24.32-.11,48.64.13,73a28,28,0,0,0,2.72,11.39c5.72,12,11.92,23.82,17.92,35.71.8,1.59,1.49,3.23,2.43,5.27H339.8c.92-2,1.63-3.57,2.42-5.14,6.23-12.33,12.6-24.6,18.64-37a21.75,21.75,0,0,0,2.12-9c.17-24.65.09-49.3.11-74C363.09,616.32,363.25,614.37,363.34,612.22ZM349.22,737.57H503.89c-6.77-13.49-13.24-26.36-19.63-39.1H368.82C362.34,711.41,355.94,724.16,349.22,737.57Zm32.3-78,32.37,14.06v-9.31l-22.59-9,22.56-8.71v-9.34l-32.34,14Zm90.09-8.18-32.47-14v9.14l22.76,8.88-22.54,8.88v9.33l32.25-14.17ZM424,679.77c4-16.48,7.9-32.71,11.9-49.3h-7c-3.91,16.44-7.78,32.67-11.74,49.3Z" transform="translate(-339.8 -612.22)"/><path class="cls-2" d="M1006.36,655.87a36.12,36.12,0,0,1,28.94,32.72c.81,14.6.26,29.29.3,43.94,0,1.48,0,3,0,4.82h-22.06c-.08-1.65-.23-3.4-.24-5.14,0-12.32,0-24.65,0-37,0-6.43-1.62-12.19-7.71-15.76a15,15,0,0,0-15.66-.29,13.92,13.92,0,0,0-7.65,13c0,13.32,0,26.64,0,40v5.19H959.82V624.05l22.44-7.5v40.57l6.38-1.26Z" transform="translate(-339.8 -612.22)"/><path class="cls-3" d="M813.54,706.74c1.24,4.4,6.5,8.21,12.52,9.19,7.07,1.14,13.15-.85,18.62-6l15.79,14.93c-10.93,10.78-23.71,15.13-38.38,12.42-16-3-27.09-12.54-32.38-27.92a42.18,42.18,0,1,1,81.23-22c1.24,6.17.42,12.76.54,19.15a13,13,0,0,0-2.83-.63q-25.95-.06-51.9,0A12.72,12.72,0,0,0,813.54,706.74Zm33.35-21.9c-4.76-6.79-10.69-9.8-18.07-9.54-6.76.25-12.12,3.33-16.29,9.54Z" transform="translate(-339.8 -612.22)"/><path class="cls-4" d="M663.42,621.84v20c-9.11,0-18.21-.05-27.31,0a21.4,21.4,0,0,0-4.56,1v94.53h-23.8v-5.19q0-42,0-84c0-1.82-.15-3.65-.23-5.47a18.82,18.82,0,0,0-4.08-1c-9-.06-18,0-27.07,0V621.78Z" transform="translate(-339.8 -612.22)"/><path class="cls-5" d="M652.73,654h22.72v5.46c0,14-.07,28,.07,42,.07,6.69,3.92,11.6,10.28,13.8a14.84,14.84,0,0,0,15.84-4.38c3-3.43,3.87-7.61,3.86-12.06q0-19.72,0-39.46v-5.2h22a3.07,3.07,0,0,1,.42,1c-.08,16.65.39,33.32-.44,49.93-.93,18.51-17.47,33.18-36.48,33.61-18.33.42-34.89-13.37-37.45-31.46a108.39,108.39,0,0,1-.74-14.43C652.67,680,652.73,667.22,652.73,654Z" transform="translate(-339.8 -612.22)"/><path class="cls-6" d="M952.3,671.49l-17.81,12.38c-12.27-10.27-24-10.7-32.22-1.33a20.34,20.34,0,0,0,1.67,28.34c8.61,7.89,20.51,6.74,30.52-3.35l17.84,12.2c-6.19,12.1-25.47,22.34-44.23,18-18.5-4.28-32.46-20.54-33.41-39.43a43.2,43.2,0,0,1,29.76-43.25C921.59,649.3,942.12,656.24,952.3,671.49Z" transform="translate(-339.8 -612.22)"/><path class="cls-7" d="M765.57,675c0,4.83.26,9.68-.1,14.49-1,12.8,6.2,25.7,23.7,27.55v22c-2.84-.17-5.81,0-8.6-.58-20.88-4.51-36-20.3-37.12-41.46-1.14-20.57-.25-41.26-.25-62.43l22.39-7.48v26.68h23.67v20.11c-6.4,0-12.8-.08-19.2,0A20.89,20.89,0,0,0,765.57,675Z" transform="translate(-339.8 -612.22)"/><path class="cls-2" d="M988.64,655.86a57.85,57.85,0,0,1,17.72,0" transform="translate(-339.8 -612.22)"/><path class="cls-8" d="M374,722.29l-.26-5.14H480.37l.26,5.14Z" transform="translate(-339.8 -612.22)"/></svg>